<svg xmlns="http://www.w3.org/2000/svg" width="1280" height="720"><rect width="1280" height="720" x="0" y="0" fill="#FFFFFF" id="background"/><g id="series"><g transform="translate(0,0)"><g transform="translate(50,50)" clip-path="url(#serieClipPath)"><g id="axis"><g transform="translate(0,620)" fill="none" font-size="10" font-family="sans-serif" text-anchor="middle"><path class="domain" stroke="currentColor" d="M0,6V0H980V6"/><g class="tick" opacity="1" transform="translate(0,0)"><line stroke="currentColor" y2="6"/><text fill="currentColor" y="9" dy="0.71em">0</text></g><g class="tick" opacity="1" transform="translate(70,0)"><line stroke="currentColor" y2="6"/><text fill="currentColor" y="9" dy="0.71em">2</text></g><g class="tick" opacity="1" transform="translate(140,0)"><line stroke="currentColor" y2="6"/><text fill="currentColor" y="9" dy="0.71em">4</text></g><g class="tick" opacity="1" transform="translate(210,0)"><line stroke="currentColor" y2="6"/><text fill="currentColor" y="9" dy="0.71em">6</text></g><g class="tick" opacity="1" transform="translate(280,0)"><line stroke="currentColor" y2="6"/><text fill="currentColor" y="9" dy="0.71em">8</text></g><g class="tick" opacity="1" transform="translate(350,0)"><line stroke="currentColor" y2="6"/><text fill="currentColor" y="9" dy="0.71em">10</text></g><g class="tick" opacity="1" transform="translate(420,0)"><line stroke="currentColor" y2="6"/><text fill="currentColor" y="9" dy="0.71em">12</text></g><g class="tick" opacity="1" transform="translate(490,0)"><line stroke="currentColor" y2="6"/><text fill="currentColor" y="9" dy="0.71em">14</text></g><g class="tick" opacity="1" transform="translate(560,0)"><line stroke="currentColor" y2="6"/><text fill="currentColor" y="9" dy="0.71em">16</text></g><g class="tick" opacity="1" transform="translate(630,0)"><line stroke="currentColor" y2="6"/><text fill="currentColor" y="9" dy="0.71em">18</text></g><g class="tick" opacity="1" transform="translate(700,0)"><line stroke="currentColor" y2="6"/><text fill="currentColor" y="9" dy="0.71em">20</text></g><g class="tick" opacity="1" transform="translate(770,0)"><line stroke="currentColor" y2="6"/><text fill="currentColor" y="9" dy="0.71em">22</text></g><g class="tick" opacity="1" transform="translate(840,0)"><line stroke="currentColor" y2="6"/><text fill="currentColor" y="9" dy="0.71em">24</text></g><g class="tick" opacity="1" transform="translate(910,0)"><line stroke="currentColor" y2="6"/><text fill="currentColor" y="9" dy="0.71em">26</text></g><g class="tick" opacity="1" transform="translate(980,0)"><line stroke="currentColor" y2="6"/><text fill="currentColor" y="9" dy="0.71em">28</text></g><text x="980" dy="-5" text-anchor="end" style="font-family: Arial, sans-serif; font-size: 12px; fill: rgb(123, 123, 123); font-weight: bold;">counta_genre</text></g><g fill="none" font-size="10" font-family="sans-serif" text-anchor="end"><path class="domain" stroke="currentColor" d="M-6,620H0V0H-6"/><g class="tick" opacity="1" transform="translate(0,620)"><line stroke="currentColor" x2="-6"/><text fill="currentColor" x="-9" dy="0.32em">0.0</text></g><g class="tick" opacity="1" transform="translate(0,558)"><line stroke="currentColor" x2="-6"/><text fill="currentColor" x="-9" dy="0.32em">0.5</text></g><g class="tick" opacity="1" transform="translate(0,496)"><line stroke="currentColor" x2="-6"/><text fill="currentColor" x="-9" dy="0.32em">1.0</text></g><g class="tick" opacity="1" transform="translate(0,434)"><line stroke="currentColor" x2="-6"/><text fill="currentColor" x="-9" dy="0.32em">1.5</text></g><g class="tick" opacity="1" transform="translate(0,372)"><line stroke="currentColor" x2="-6"/><text fill="currentColor" x="-9" dy="0.32em">2.0</text></g><g class="tick" opacity="1" transform="translate(0,310)"><line stroke="currentColor" x2="-6"/><text fill="currentColor" x="-9" dy="0.32em">2.5</text></g><g class="tick" opacity="1" transform="translate(0,248)"><line stroke="currentColor" x2="-6"/><text fill="currentColor" x="-9" dy="0.32em">3.0</text></g><g class="tick" opacity="1" transform="translate(0,186)"><line stroke="currentColor" x2="-6"/><text fill="currentColor" x="-9" dy="0.32em">3.5</text></g><g class="tick" opacity="1" transform="translate(0,124)"><line stroke="currentColor" x2="-6"/><text fill="currentColor" x="-9" dy="0.32em">4.0</text></g><g class="tick" opacity="1" transform="translate(0,62)"><line stroke="currentColor" x2="-6"/><text fill="currentColor" x="-9" dy="0.32em">4.5</text></g><g class="tick" opacity="1" transform="translate(0,0)"><line stroke="currentColor" x2="-6"/><text fill="currentColor" x="-9" dy="0.32em">5.0</text></g><text x="4" text-anchor="start" dominant-baseline="hanging" style="font-family: Arial, sans-serif; font-size: 12px; fill: rgb(123, 123, 123); font-weight: bold;">avg_rating</text></g></g><g id="viz"><g><circle cx="910" cy="122" fill="rgb(158, 1, 66)" r="10" stroke="white"/></g><g><circle cx="910" cy="172" fill="rgb(235, 247, 166)" r="10" stroke="white"/></g><g><circle cx="945" cy="207" fill="rgb(68, 120, 178)" r="10" stroke="white"/></g><g><circle cx="525" cy="178" fill="rgb(251, 163, 94)" r="7" stroke="white"/></g><g><circle cx="490" cy="146" fill="rgb(94, 79, 162)" r="7" stroke="white"/></g><g><circle cx="350" cy="236" fill="rgb(253, 202, 121)" r="6" stroke="white"/></g><g><circle cx="210" cy="238" fill="rgb(225, 82, 74)" r="5" stroke="white"/></g><g><circle cx="140" cy="140" fill="rgb(196, 44, 74)" r="4" stroke="white"/></g><g><circle cx="175" cy="248" fill="rgb(254, 232, 154)" r="4" stroke="white"/></g><g><circle cx="105" cy="310" fill="rgb(251, 248, 176)" r="3" stroke="white"/></g><g><circle cx="105" cy="103" fill="rgb(204, 234, 159)" r="3" stroke="white"/></g><g><circle cx="35" cy="186" fill="rgb(243, 120, 76)" r="2" stroke="white"/></g><g><circle cx="35" cy="248" fill="rgb(114, 195, 167)" r="2" stroke="white"/></g><g><circle cx="35" cy="0" fill="rgb(160, 217, 163)" r="2" stroke="white"/></g><g><circle cx="35" cy="62" fill="rgb(75, 160, 177)" r="2" stroke="white"/></g><g id="labels"><g transform="translate(910,122)"><text x="0" y="0" text-anchor="middle" dominant-baseline="text-before-edge" transform="translate(0,-5.599999904632568)"><tspan x="0" y="0" dy="0" style="font-family: Arial, sans-serif; font-size: 10px; fill: black; font-weight: bold;">Acción</tspan></text></g><g transform="translate(910,172)"><text x="0" y="0" text-anchor="middle" dominant-baseline="text-before-edge" transform="translate(0,-5.599999904632568)"><tspan x="0" y="0" dy="0" style="font-family: Arial, sans-serif; font-size: 10px; fill: black; font-weight: bold;">Drama</tspan></text></g><g transform="translate(945,207)"><text x="0" y="0" text-anchor="middle" dominant-baseline="text-before-edge" transform="translate(0,-5.599999904632568)"><tspan x="0" y="0" dy="0" style="font-family: Arial, sans-serif; font-size: 10px; fill: black; font-weight: bold;">Terror</tspan></text></g><g transform="translate(525,178)"><text x="0" y="0" text-anchor="middle" dominant-baseline="text-before-edge" transform="translate(0,-5.599999904632568)"><tspan x="0" y="0" dy="0" style="font-family: Arial, sans-serif; font-size: 10px; fill: black; font-weight: bold;">Ciencia ficción</tspan></text></g><g transform="translate(490,146)"><text x="0" y="0" text-anchor="middle" dominant-baseline="text-before-edge" transform="translate(0,-5.599999904632568)"><tspan x="0" y="0" dy="0" style="font-family: Arial, sans-serif; font-size: 10px; fill: black; font-weight: bold;">Thriller</tspan></text></g><g transform="translate(350,236)"><text x="0" y="0" text-anchor="middle" dominant-baseline="text-before-edge" transform="translate(0,-5.599999904632568)"><tspan x="0" y="0" dy="0" style="font-family: Arial, sans-serif; font-size: 10px; fill: black; font-weight: bold;">Comedia</tspan></text></g><g transform="translate(210,238)"><text x="0" y="0" text-anchor="middle" dominant-baseline="text-before-edge" transform="translate(0,-5.599999904632568)"><tspan x="0" y="0" dy="0" style="font-family: Arial, sans-serif; font-size: 10px; fill: black; font-weight: bold;">Aventura</tspan></text></g><g transform="translate(140,140)"><text x="0" y="0" text-anchor="middle" dominant-baseline="text-before-edge" transform="translate(0,-5.599999904632568)"><tspan x="0" y="0" dy="0" style="font-family: Arial, sans-serif; font-size: 10px; fill: black; font-weight: bold;">Animación</tspan></text></g><g transform="translate(175,248)"><text x="0" y="0" text-anchor="middle" dominant-baseline="text-before-edge" transform="translate(0,-5.599999904632568)"><tspan x="0" y="0" dy="0" style="font-family: Arial, sans-serif; font-size: 10px; fill: black; font-weight: bold;">Crimen</tspan></text></g><g transform="translate(105,310)"><text x="0" y="0" text-anchor="middle" dominant-baseline="text-before-edge" transform="translate(0,-5.599999904632568)"><tspan x="0" y="0" dy="0" style="font-family: Arial, sans-serif; font-size: 10px; fill: black; font-weight: bold;">Documental</tspan></text></g><g transform="translate(105,103)"><text x="0" y="0" text-anchor="middle" dominant-baseline="text-before-edge" transform="translate(0,-5.599999904632568)"><tspan x="0" y="0" dy="0" style="font-family: Arial, sans-serif; font-size: 10px; fill: black; font-weight: bold;">Fantasía</tspan></text></g><g transform="translate(35,186)"><text x="0" y="0" text-anchor="middle" dominant-baseline="text-before-edge" transform="translate(0,-5.599999904632568)"><tspan x="0" y="0" dy="0" style="font-family: Arial, sans-serif; font-size: 10px; fill: black; font-weight: bold;">Bélico</tspan></text></g><g transform="translate(35,248)"><text x="0" y="0" text-anchor="middle" dominant-baseline="text-before-edge" transform="translate(0,-5.599999904632568)"><tspan x="0" y="0" dy="0" style="font-family: Arial, sans-serif; font-size: 10px; fill: black; font-weight: bold;">Música</tspan></text></g><g transform="translate(35,0)"><text x="0" y="0" text-anchor="middle" dominant-baseline="text-before-edge" transform="translate(0,-5.599999904632568)"><tspan x="0" y="0" dy="0" style="font-family: Arial, sans-serif; font-size: 10px; fill: black; font-weight: bold;">Musical</tspan></text></g><g transform="translate(35,62)"><text x="0" y="0" text-anchor="middle" dominant-baseline="text-before-edge" transform="translate(0,-5.599999904632568)"><tspan x="0" y="0" dy="0" style="font-family: Arial, sans-serif; font-size: 10px; fill: black; font-weight: bold;">Romance</tspan></text></g></g></g></g><text y="4" x="4" style="font-family: Arial, sans-serif; font-size: 12px; fill: black; font-weight: bold; dominant-baseline: hanging;"/></g></g><g id="grid"><rect x="0" y="0" width="1080" height="720" fill="none" stroke="#ccc"/></g><clipPath id="serieClipPath"><rect x="-50" y="-50" width="1080" height="720"/></clipPath><g id="legend" transform="translate(1080,50)"><g transform="translate(5,0)"><g class="legendSize" transform="translate(0,0)"><g class="legendCells" transform="translate(10,16)"><g class="cell" transform="translate(0, 2)"><circle class="swatch" r="2" fill="none" stroke="#ccc"/><text class="label" transform="translate( 15,&#10;          5)" font-family="&quot;Arial&quot;, sans-serif" font-size="10px"><tspan x="0" dy="0em">1.0</tspan></text></g><g class="cell" transform="translate(0, 28)"><circle class="swatch" r="10" fill="none" stroke="#ccc"/><text class="label" transform="translate( 15,&#10;          5)" font-family="&quot;Arial&quot;, sans-serif" font-size="10px"><tspan x="0" dy="0em">27.0</tspan></text></g></g><text class="legendTitle" font-family="&quot;Arial&quot;, sans-serif" font-size="12px" font-weight="bold"><tspan x="0" dy="0em">counta_genre</tspan></text></g><g class="legendColor" transform="translate(0,86.80000305175781)"><g class="legendCells" transform="translate(0,16)"><g class="cell" transform="translate(0, 0)"><rect class="swatch" height="15" width="15" style="fill: rgb(158, 1, 66);"/><text class="label" transform="translate( 20, 12.5)" font-family="&quot;Arial&quot;, sans-serif" font-size="10px"><tspan x="0" dy="0em">Acción</tspan></text></g><g class="cell" transform="translate(0, 21)"><rect class="swatch" height="15" width="15" style="fill: rgb(196, 44, 74);"/><text class="label" transform="translate( 20, 12.5)" font-family="&quot;Arial&quot;, sans-serif" font-size="10px"><tspan x="0" dy="0em">Animación</tspan></text></g><g class="cell" transform="translate(0, 42)"><rect class="swatch" height="15" width="15" style="fill: rgb(225, 82, 74);"/><text class="label" transform="translate( 20, 12.5)" font-family="&quot;Arial&quot;, sans-serif" font-size="10px"><tspan x="0" dy="0em">Aventura</tspan></text></g><g class="cell" transform="translate(0, 63)"><rect class="swatch" height="15" width="15" style="fill: rgb(243, 120, 76);"/><text class="label" transform="translate( 20, 12.5)" font-family="&quot;Arial&quot;, sans-serif" font-size="10px"><tspan x="0" dy="0em">Bélico</tspan></text></g><g class="cell" transform="translate(0, 84)"><rect class="swatch" height="15" width="15" style="fill: rgb(251, 163, 94);"/><text class="label" transform="translate( 20, 12.5)" font-family="&quot;Arial&quot;, sans-serif" font-size="10px"><tspan x="0" dy="0em">Ciencia ficción</tspan></text></g><g class="cell" transform="translate(0, 105)"><rect class="swatch" height="15" width="15" style="fill: rgb(253, 202, 121);"/><text class="label" transform="translate( 20, 12.5)" font-family="&quot;Arial&quot;, sans-serif" font-size="10px"><tspan x="0" dy="0em">Comedia</tspan></text></g><g class="cell" transform="translate(0, 126)"><rect class="swatch" height="15" width="15" style="fill: rgb(254, 232, 154);"/><text class="label" transform="translate( 20, 12.5)" font-family="&quot;Arial&quot;, sans-serif" font-size="10px"><tspan x="0" dy="0em">Crimen</tspan></text></g><g class="cell" transform="translate(0, 147)"><rect class="swatch" height="15" width="15" style="fill: rgb(251, 248, 176);"/><text class="label" transform="translate( 20, 12.5)" font-family="&quot;Arial&quot;, sans-serif" font-size="10px"><tspan x="0" dy="0em">Documental</tspan></text></g><g class="cell" transform="translate(0, 168)"><rect class="swatch" height="15" width="15" style="fill: rgb(235, 247, 166);"/><text class="label" transform="translate( 20, 12.5)" font-family="&quot;Arial&quot;, sans-serif" font-size="10px"><tspan x="0" dy="0em">Drama</tspan></text></g><g class="cell" transform="translate(0, 189)"><rect class="swatch" height="15" width="15" style="fill: rgb(204, 234, 159);"/><text class="label" transform="translate( 20, 12.5)" font-family="&quot;Arial&quot;, sans-serif" font-size="10px"><tspan x="0" dy="0em">Fantasía</tspan></text></g><g class="cell" transform="translate(0, 210)"><rect class="swatch" height="15" width="15" style="fill: rgb(160, 217, 163);"/><text class="label" transform="translate( 20, 12.5)" font-family="&quot;Arial&quot;, sans-serif" font-size="10px"><tspan x="0" dy="0em">Musical</tspan></text></g><g class="cell" transform="translate(0, 231)"><rect class="swatch" height="15" width="15" style="fill: rgb(114, 195, 167);"/><text class="label" transform="translate( 20, 12.5)" font-family="&quot;Arial&quot;, sans-serif" font-size="10px"><tspan x="0" dy="0em">Música</tspan></text></g><g class="cell" transform="translate(0, 252)"><rect class="swatch" height="15" width="15" style="fill: rgb(75, 160, 177);"/><text class="label" transform="translate( 20, 12.5)" font-family="&quot;Arial&quot;, sans-serif" font-size="10px"><tspan x="0" dy="0em">Romance</tspan></text></g><g class="cell" transform="translate(0, 273)"><rect class="swatch" height="15" width="15" style="fill: rgb(68, 120, 178);"/><text class="label" transform="translate( 20, 12.5)" font-family="&quot;Arial&quot;, sans-serif" font-size="10px"><tspan x="0" dy="0em">Terror</tspan></text></g><g class="cell" transform="translate(0, 294)"><rect class="swatch" height="15" width="15" style="fill: rgb(94, 79, 162);"/><text class="label" transform="translate( 20, 12.5)" font-family="&quot;Arial&quot;, sans-serif" font-size="10px"><tspan x="0" dy="0em">Thriller</tspan></text></g></g><text class="legendTitle" font-family="&quot;Arial&quot;, sans-serif" font-size="12px" font-weight="bold"><tspan x="0" dy="0em">Genre</tspan></text></g></g></g></svg>
